<svg width="11" height="17" viewBox="0 0 11 17" fill="none" xmlns="http://www.w3.org/2000/svg">
<path d="M10 0.166687C10.2041 0.166714 10.4011 0.241651 10.5536 0.377283C10.7062 0.512916 10.8036 0.699811 10.8275 0.90252L10.8333 1.00002V4.33335C10.8333 4.53746 10.7584 4.73447 10.6227 4.887C10.4871 5.03953 10.3002 5.13697 10.0975 5.16085L10 5.16669H7.5V6.00002H10C10.1186 6.00007 10.2359 6.02544 10.3439 6.07444C10.4519 6.12344 10.5483 6.19495 10.6265 6.28417C10.7046 6.37339 10.7629 6.47828 10.7972 6.59181C10.8316 6.70535 10.8414 6.82491 10.8258 6.94252L10.8092 7.03585L9.97583 10.3692C9.93447 10.5338 9.84385 10.6818 9.71607 10.7935C9.5883 10.9052 9.42947 10.9752 9.26083 10.9942L9.16667 11H7.5V16C7.49997 16.2041 7.42504 16.4011 7.2894 16.5537C7.15377 16.7062 6.96688 16.8036 6.76417 16.8275L6.66667 16.8334H3.33333C3.12922 16.8333 2.93222 16.7584 2.77969 16.6228C2.62716 16.4871 2.52971 16.3002 2.50583 16.0975L2.5 16V11H0.833333C0.629222 11 0.432219 10.9251 0.27969 10.7894C0.127161 10.6538 0.0297143 10.4669 0.00583331 10.2642L0 10.1667V6.83335C2.69255e-05 6.62924 0.0749633 6.43224 0.210596 6.27971C0.346229 6.12718 0.533124 6.02973 0.735833 6.00585L0.833333 6.00002H2.5V5.16669C2.49995 3.87304 3.00131 2.62972 3.89872 1.69796C4.79614 0.766201 6.01976 0.218532 7.3125 0.17002L7.5 0.166687H10Z" fill="#4267B2"/>
</svg>
