<svg width="17" height="17" viewBox="0 0 17 17" fill="none" xmlns="http://www.w3.org/2000/svg">
<path d="M3.42892 0.249981C4.08809 0.155814 5.01226 0.370814 6.20642 1.05498L6.43309 1.18915L6.56642 1.27248L6.89726 1.20331C8.15876 0.959554 9.45303 0.936996 10.7223 1.13665L11.1023 1.20331L11.4323 1.27248L11.5664 1.18915C12.7206 0.489148 13.6389 0.214148 14.3348 0.232481L14.4714 0.239148L14.5939 0.253314L14.6573 0.264981L14.6989 0.274148L14.8189 0.313314C15.0154 0.394528 15.1734 0.54776 15.2606 0.741648C15.6016 1.5014 15.7165 2.34332 15.5914 3.16665L15.5523 3.38915L15.5139 3.55248L15.6164 3.68831C16.0948 4.35081 16.3914 5.12831 16.4748 5.94415L16.4939 6.18998L16.4998 6.41665C16.4998 9.62915 15.1173 11.3191 12.6298 11.9833L12.4256 12.0341L12.3156 12.0583L12.3273 12.1925L12.3339 12.3233L12.3373 12.6275L12.3356 12.805L12.3331 16C12.3331 16.2041 12.2581 16.4011 12.1225 16.5536C11.9869 16.7062 11.8 16.8036 11.5973 16.8275L11.4998 16.8333H6.49976C6.29565 16.8333 6.09864 16.7584 5.94611 16.6227C5.79358 16.4871 5.69614 16.3002 5.67226 16.0975L5.66642 16V15.3883C4.15142 15.605 3.14142 15.035 2.24142 13.8233L1.79559 13.185C1.56226 12.855 1.41642 12.7025 1.30476 12.6483L1.26476 12.6325C1.05843 12.5654 0.886388 12.4206 0.785188 12.2287C0.683988 12.0368 0.661612 11.813 0.722815 11.6049C0.784018 11.3967 0.923974 11.2207 1.11294 11.1141C1.30191 11.0075 1.52498 10.9788 1.73476 11.0341C2.26976 11.1908 2.62976 11.5075 3.04309 12.0666L3.49142 12.7075C4.12476 13.6066 4.62476 13.9233 5.66559 13.7L5.66642 13.135L5.65142 12.995C5.62681 12.767 5.62096 12.5373 5.63392 12.3083L5.64809 12.1541L5.66392 12.0541L5.57392 12.0341C3.09392 11.4425 1.65476 9.88998 1.51142 6.91832L1.50309 6.65998L1.49976 6.41665C1.50072 5.5138 1.76357 4.63061 2.25642 3.87415L2.38309 3.68915L2.48476 3.55331L2.44726 3.38998C2.29702 2.65795 2.33865 1.89951 2.56809 1.18831L2.65142 0.953314L2.73976 0.742481C2.82675 0.548747 2.98444 0.395537 3.18059 0.314148L3.30059 0.274981L3.42892 0.249981Z" fill="#2F2B3D" fill-opacity="0.9"/>
</svg>
