<svg width="18" height="17" viewBox="0 0 18 17" fill="none" xmlns="http://www.w3.org/2000/svg">
<path d="M8.99984 0.166695C10.9084 0.163995 12.7595 0.819108 14.2415 2.0217C14.3351 2.09749 14.4111 2.19267 14.4644 2.30068C14.5177 2.40869 14.5469 2.52696 14.5501 2.64735C14.5532 2.76773 14.5303 2.88738 14.4827 2.99804C14.4352 3.1087 14.3643 3.20775 14.2748 3.28836L13.0165 4.42336C12.8736 4.55208 12.6905 4.62739 12.4983 4.6365C12.3062 4.64561 12.1168 4.58798 11.9623 4.47336C11.115 3.85061 10.093 3.51085 9.04147 3.50238C7.98997 3.49391 6.96256 3.81716 6.10534 4.42618C5.24812 5.0352 4.60473 5.89898 4.26666 6.89469C3.92858 7.8904 3.91304 8.96735 4.22223 9.9724C4.53142 10.9774 5.14961 11.8594 5.98889 12.493C6.82817 13.1265 7.84582 13.4792 8.89712 13.5011C9.94843 13.523 10.9799 13.2129 11.8448 12.6149C12.7097 12.0168 13.3641 11.1613 13.7148 10.17L13.7157 10.1667H10.6657C10.4617 10.1665 10.2649 10.0914 10.1125 9.95582C9.9602 9.82021 9.86287 9.63343 9.839 9.43086L9.83317 9.33336V7.66669C9.83317 7.44568 9.92097 7.23372 10.0772 7.07744C10.2335 6.92116 10.4455 6.83336 10.6665 6.83336H16.454C16.6592 6.83335 16.8571 6.90901 17.0099 7.04586C17.1628 7.1827 17.2598 7.37112 17.2823 7.57503C17.3157 7.88086 17.3332 8.18919 17.3332 8.50003C17.3332 13.1025 13.6023 16.8334 8.99984 16.8334C4.39734 16.8334 0.666504 13.1025 0.666504 8.50003C0.666504 3.89753 4.39734 0.166695 8.99984 0.166695Z" fill="#FF4C51"/>
</svg>
