<svg width="20" height="16" viewBox="0 0 20 16" fill="none" xmlns="http://www.w3.org/2000/svg">
<path d="M11.7149 1.3417C10.2091 1.98086 9.21907 3.38586 9.16824 4.9917L9.16657 5.14336L8.96407 5.1242C6.97074 4.90003 5.21574 3.8642 4.01074 2.1817C3.92914 2.06767 3.82009 1.97607 3.69369 1.91539C3.56729 1.85471 3.42761 1.8269 3.28761 1.83454C3.1476 1.84219 3.01179 1.88504 2.89274 1.95912C2.77369 2.0332 2.67527 2.13613 2.60657 2.25836L2.52574 2.41336L2.4849 2.49586C1.88574 3.73336 1.49324 5.23753 1.6374 6.8317L1.6624 7.0592C1.89824 8.94503 2.9124 10.5717 4.81157 11.7917L4.95574 11.8809L4.88824 11.9167C3.7924 12.4692 2.7899 12.71 1.69907 12.6667C0.819071 12.6334 0.494071 13.81 1.2674 14.2317C4.26574 15.8659 7.4849 16.37 10.2607 15.565C13.6441 14.5817 16.2207 12.0459 17.2066 8.53753L17.3124 8.12503C17.5107 7.29753 17.6224 6.45336 17.6466 5.60503L17.6491 5.32836L17.9766 4.6792L18.3432 3.96086L18.5216 3.5992L18.6199 3.39336C18.8407 2.92253 18.9999 2.53253 19.0982 2.2017L19.1099 2.15503L19.1166 2.14003C19.2999 1.64586 18.9782 1.00836 18.3324 1.00836L18.2307 1.0142C18.1649 1.02229 18.1003 1.03824 18.0382 1.0617L17.9666 1.09336C17.7288 1.20885 17.4838 1.30906 17.2332 1.39336L16.9366 1.4892L16.7107 1.55586L16.0674 1.7342C14.9541 0.802529 13.4474 0.689196 11.8907 1.27253L11.7149 1.3417Z" fill="#1DA1F2"/>
</svg>
